<?xml version="1.0" standalone="no"?><!DOCTYPE svg PUBLIC "-//W3C//DTD SVG 1.1//EN" "http://www.w3.org/Graphics/SVG/1.1/DTD/svg11.dtd"><svg t="1565148042525" class="icon" viewBox="0 0 1024 1024" version="1.1" xmlns="http://www.w3.org/2000/svg" p-id="9734" xmlns:xlink="http://www.w3.org/1999/xlink" width="128" height="128"><defs><style type="text/css"></style></defs><path d="M512 0a512 512 0 1 0 0 1024 512 512 0 0 0 0-1024z m320 700.544c0 34.56-28.8 62.912-64 62.912h-512c-35.2 0-64-28.352-64-62.912l0.256-310.528v-0.064l312.064 167.36c4.736 2.56 10.496 2.56 15.296 0l312.384-167.424v310.656z m-319.872-202.304L192.256 322.816a63.36 63.36 0 0 1 63.744-62.272h512a63.68 63.68 0 0 1 64 62.144l-319.872 175.552z" p-id="9735"></path></svg>