<?xml version="1.0" standalone="no"?><!DOCTYPE svg PUBLIC "-//W3C//DTD SVG 1.1//EN" "http://www.w3.org/Graphics/SVG/1.1/DTD/svg11.dtd"><svg t="1564663836841" class="icon" viewBox="0 0 1024 1024" version="1.1" xmlns="http://www.w3.org/2000/svg" p-id="9583" xmlns:xlink="http://www.w3.org/1999/xlink" width="128" height="128"><defs><style type="text/css"></style></defs><path d="M511.991638 853.30489H473.592918S324.264562 647.044032 324.264562 426.857238C324.264562 206.704577 437.173865 55.396553 455.1274 36.111863 468.677881 21.639812 511.991638 0 511.991638 0s41.846072 16.281057 56.864237 36.111863C583.874042 55.976801 699.718713 206.704577 699.718713 426.857238 699.718713 647.044032 550.390358 853.30489 550.390358 853.30489H511.991638zM568.378025 111.270958H455.60525a18.567914 18.567914 0 0 0-18.704443 18.567914c0 10.239659 8.533049 18.567914 18.704443 18.567914h112.772775a18.602047 18.602047 0 0 0 18.704443-18.567914c0-10.239659-8.533049-18.533782-18.704443-18.533782zM587.082468 296.847705c0-40.958635-33.620213-74.203393-75.09083-74.203393-41.470618 0-75.09083 33.210626-75.090831 74.203393 0 40.958635 33.620213 74.203393 75.090831 74.203393 41.470618 0 75.09083-33.244759 75.09083-74.203393zM560.288694 887.437085c1.877271 7.099497 2.901237 14.745108 2.901237 22.766175 0 16.929569-4.641979 32.425586-12.28759 44.371854l-22.049399 50.310856c-1.365288 10.819906-8.362388 19.079897-16.861304 19.079898-8.191727 0-15.018166-7.679744-16.690644-17.953535H494.92554l-24.779974-56.488784A88.846105 88.846105 0 0 1 463.728713 887.437085h96.559981zM737.161732 656.49865c22.902703 4.164128 35.838805 23.346422 29.012366 42.870038l-68.196127 195.57748c-3.856938 11.263625-13.618746 20.786507-25.599146 26.623113l-10.034866-108.574514c-1.501817-16.042132-14.267258-31.777074-30.889637-39.729876A878.153128 878.153128 0 0 0 693.097067 648.511716l44.030533 7.986934zM286.821543 656.49865L330.886208 648.511716A880.405853 880.405853 0 0 0 392.528953 773.264891c-16.622379 7.952802-29.38782 23.687744-30.889637 39.729876L351.604451 921.569281c-11.980401-5.836605-21.708076-15.359488-25.599147-26.623113L257.775045 699.368688c-6.826439-19.557748 6.109663-38.70591 29.012366-42.870038z" fill="#000000" p-id="9584"></path></svg>