<?xml version="1.0" standalone="no"?><!DOCTYPE svg PUBLIC "-//W3C//DTD SVG 1.1//EN" "http://www.w3.org/Graphics/SVG/1.1/DTD/svg11.dtd"><svg t="1565147727470" class="icon" viewBox="0 0 1024 1024" version="1.1" xmlns="http://www.w3.org/2000/svg" p-id="1221" xmlns:xlink="http://www.w3.org/1999/xlink" width="128" height="128"><defs><style type="text/css"></style></defs><path d="M539.927273 418.909091h-262.981818c9.309091-20.945455 20.945455-41.890909 37.236363-60.509091 4.654545-6.981818 11.636364-16.290909 20.945455-23.272727 16.290909-16.290909 34.909091-30.254545 55.854545-41.890909l13.963637-6.981819 134.981818 132.654546z m-79.127273 18.618182c-6.981818 4.654545-186.181818 186.181818-183.854545 186.181818-9.309091-20.945455-16.290909-44.218182-18.618182-69.818182 0-9.309091-2.327273-20.945455-2.327273-30.254545 0-25.6 2.327273-46.545455 9.309091-69.818182 2.327273-4.654545 2.327273-11.636364 4.654545-16.290909h190.836364z m302.545455-34.909091l-134.981819 132.654545v-260.654545c20.945455 9.309091 41.890909 20.945455 60.509091 37.236363 6.981818 6.981818 16.290909 13.963636 23.272728 20.945455 16.290909 18.618182 32.581818 34.909091 41.890909 55.854545 4.654545 4.654545 6.981818 9.309091 9.309091 13.963637z m-153.6 58.181818c-4.654545-6.981818-186.181818-186.181818-186.181819-183.854545 20.945455-9.309091 44.218182-16.290909 69.818182-18.618182 9.309091 0 20.945455-2.327273 30.254546-2.327273 25.6 0 48.872727 2.327273 69.818181 9.309091 4.654545 2.327273 11.636364 2.327273 16.29091 4.654545v190.836364z m-190.836364 46.545455v262.981818c-20.945455-9.309091-41.890909-20.945455-60.509091-37.236364-6.981818-6.981818-16.290909-13.963636-23.272727-20.945454-16.290909-18.618182-32.581818-34.909091-41.890909-55.854546-2.327273-4.654545-4.654545-9.309091-6.981819-16.290909l132.654546-132.654545z m88.436364 123.345454c6.981818 2.327273 262.981818 0 262.981818 0-9.309091 20.945455-20.945455 41.890909-37.236364 60.509091-6.981818 6.981818-13.963636 16.290909-20.945454 23.272727-18.618182 16.290909-34.909091 30.254545-55.854546 41.890909-4.654545 2.327273-9.309091 4.654545-16.290909 6.981819l-132.654545-132.654546z m281.6-137.309091c2.327273 9.309091 2.327273 20.945455 0 30.254546 0 25.6-2.327273 46.545455-9.309091 69.818181-2.327273 4.654545-2.327273 11.636364-4.654546 16.29091h-190.836363c6.981818-4.654545 186.181818-186.181818 186.181818-186.181819 9.309091 23.272727 16.290909 46.545455 18.618182 69.818182z m-351.418182 95.418182c4.654545 6.981818 186.181818 186.181818 186.181818 183.854545-20.945455 9.309091-44.218182 16.290909-69.818182 18.618182-9.309091 0-20.945455 2.327273-30.254545 2.327273-23.272727 0-46.545455-2.327273-69.818182-9.309091-4.654545-2.327273-11.636364-2.327273-16.290909-4.654545v-190.836364z" fill="#FFFFFF" p-id="1222"></path><path d="M281.6 330.472727l51.2-76.8 20.945455 27.927273 30.254545-48.872727 46.545455 88.436363v-95.418181h-202.472728v134.981818h202.472728v-27.927273l-148.945455-2.327273z m-30.254545-76.8c0-9.309091 6.981818-18.618182 16.290909-18.618182 9.309091 0 18.618182 6.981818 18.618181 16.29091 0 9.309091-6.981818 18.618182-16.290909 18.618181-9.309091 0-18.618182-6.981818-18.618181-16.290909z m400.290909-6.981818h151.272727v-23.272727h-151.272727v23.272727z m0 44.218182h151.272727v-23.272727h-151.272727v23.272727z m0-86.109091h151.272727v-23.272727h-151.272727v23.272727z m-195.490909 41.890909h172.218181v-23.272727h-172.218181v23.272727z m0 44.218182h172.218181v-23.272727h-172.218181v23.272727z m0-86.109091h172.218181v-23.272727h-172.218181v23.272727z m-228.072728 572.509091h397.963637v-23.272727h-397.963637v23.272727z m0 41.890909h397.963637v-23.272727h-397.963637v23.272727z m0-83.781818h397.963637v-23.272727h-397.963637v23.272727z m423.563637 41.890909h151.272727v-23.272727h-151.272727v23.272727z m0 41.890909h151.272727v-23.272727h-151.272727v23.272727z m0-83.781818h151.272727v-23.272727h-151.272727v23.272727z m-409.6-551.563637H249.018182l2.327273 2.327273V193.163636l-2.327273 2.327273c2.327273 0 2.327273 2.327273 4.654545 2.327273 2.327273 2.327273 2.327273 4.654545 0 9.309091l-2.327272 2.327272-2.327273 2.327273h-18.618182v-27.927273h11.636364z m0 11.636364h2.327272v-2.327273-2.327272h-9.309091v6.981818l6.981819-2.327273z m0 11.636364h2.327272v-2.327273-2.327273c0-2.327273 0-2.327273-2.327272-2.327272h-9.309091v6.981818h9.309091z m20.945454 9.309091H256v-4.654546h4.654545v-2.327273-2.327272l-6.981818-18.618182h6.981818l4.654546 13.963636 4.654545-13.963636h6.981819l-9.309091 23.272727c-4.654545 2.327273-4.654545 4.654545-4.654546 4.654546z m27.927273-25.6l-2.327273 4.654545h-4.654545v11.636364h4.654545v4.654545h-2.327273-2.327272-2.327273l-2.327273-2.327273v-13.963636h-4.654545v-4.654545h2.327273v-2.327273l4.654545-2.327273v6.981818h9.309091z m34.909091-6.981819h4.654545c2.327273 0 2.327273 2.327273 4.654546 2.327273 2.327273 2.327273 2.327273 2.327273 2.327272 4.654546v11.636363c0 2.327273-2.327273 2.327273-2.327272 4.654546s-2.327273 2.327273-4.654546 2.327272-4.654545 2.327273-4.654545 0h-11.636364v-27.927272l11.636364 2.327272z m0 23.272728h2.327273c2.327273 0 2.327273-2.327273 4.654545-4.654546v-4.654545-4.654546s0-2.327273-2.327273-2.327272l-2.327272-2.327273h-9.309091v18.618182h6.981818z m76.8-4.654546c0 2.327273-2.327273 4.654545-4.654546 4.654546-4.654545 0-4.654545-4.654545-4.654545-4.654546v-2.327272s0-4.654545 4.654545-4.654546c2.327273 0 4.654545 2.327273 4.654546 4.654546h4.654545c0-4.654545-4.654545-6.981818-9.309091-6.981819s-9.309091 4.654545-9.309091 9.309091v2.327273c0 4.654545 4.654545 9.309091 9.309091 9.309091s9.309091-2.327273 9.309091-6.981818l-4.654545-4.654546z m25.6 0h2.327273v-2.327272c0-4.654545-4.654545-9.309091-9.309091-9.309091s-9.309091 4.654545-9.309091 9.309091v2.327272c0 4.654545 4.654545 9.309091 9.309091 9.309091s9.309091-2.327273 9.309091-6.981818h-4.654546c0 2.327273-2.327273 2.327273-4.654545 2.327273s-4.654545-4.654545-4.654546-4.654546h11.636364z m-9.309091-6.981818c2.327273 0 4.654545 2.327273 4.654545 4.654546h-9.309091c2.327273-2.327273 2.327273-4.654545 4.654546-4.654546z m-111.709091 6.981818h2.327273v-2.327272c0-4.654545-4.654545-9.309091-9.309091-9.309091s-9.309091 4.654545-9.309091 9.309091v2.327272c0 4.654545 4.654545 9.309091 9.309091 9.309091s9.309091-2.327273 6.981818-9.309091l-2.327273 2.327273c0 2.327273-2.327273 2.327273-4.654545 2.327273s-4.654545-4.654545-4.654546-4.654546h11.636364z m-6.981818-6.981818c2.327273 0 4.654545 2.327273 4.654545 4.654546h-9.309091c2.327273-2.327273 2.327273-4.654545 4.654546-4.654546z m62.836363-4.654545h-11.636363c-4.654545 0-9.309091 4.654545-9.309091 9.309091v2.327272c0 4.654545 4.654545 9.309091 9.309091 9.309091 2.327273 0 4.654545 0 4.654545-2.327273l4.654546 2.327273v-20.945454z m-11.636363 16.290909c-4.654545 0-4.654545-4.654545-4.654546-4.654546v-2.327272s0-4.654545 4.654546-4.654546 4.654545 4.654545 4.654545 4.654546v2.327272s0 4.654545-4.654545 4.654546z m32.581818-11.636364c0-2.327273-2.327273-6.981818-6.981818-6.981818-2.327273 0-4.654545 0-6.981818 2.327273l-6.981819-2.327273v20.945454h4.654546v-11.636363c0-6.981818 4.654545-4.654545 4.654545-4.654546 4.654545 0 2.327273 4.654545 2.327273 4.654546v11.636363h4.654546v-11.636363c4.654545 0 4.654545-2.327273 4.654545-2.327273z" fill="#DBDCDC" p-id="1223"></path><path d="M1014.690909 502.690909c0-100.072727-30.254545-193.163636-79.127273-272.290909l-875.054545 51.2c-32.581818 67.490909-51.2 141.963636-51.2 221.090909 0 100.072727 30.254545 193.163636 79.127273 272.290909l877.381818-53.527273c30.254545-67.490909 48.872727-141.963636 48.872727-218.763636" fill="#E62318" p-id="1224"></path><path d="M828.509091 553.890909v-39.563636l-118.690909 6.981818v-18.618182l-58.181818 4.654546v18.618181l-118.690909 6.981819v37.236363l118.690909-6.981818v83.781818l58.181818-4.654545V558.545455z" fill="#FFFFFF" p-id="1225"></path><path d="M532.945455 484.072727v37.236364l41.890909-2.327273 104.727272-51.2 107.054546 39.563637 41.890909-2.327273V465.454545l-27.927273 2.327273-72.145454-25.6 93.090909-46.545454v-65.163637l-58.181818 2.327273-132.654546 6.981818-46.545454-20.945454-58.181819 93.090909 48.872728 18.618182 30.254545-48.872728 155.927273-9.309091v9.309091l-88.436364 41.890909-67.490909-25.6-23.272727 34.909091 39.563636 13.963637-69.818182 34.909091-18.618181 2.327272z m265.30909 81.454546l-58.181818 2.327272 41.890909 69.818182 58.181819-2.327272-41.89091-69.818182z m-265.30909 86.109091l58.181818-2.327273 37.236363-74.472727-58.181818 2.327272-37.236363 74.472728z m-134.981819-83.781819l44.218182 88.436364 62.836364-2.327273-44.218182-88.436363-62.836364 2.327272z m-60.509091-65.163636l-46.545454-58.181818-62.836364 4.654545 46.545455 58.181819 62.836363-4.654546z m0-72.145454l-46.545454-58.181819-62.836364 2.327273 46.545455 58.181818 62.836363-2.327272z" fill="#FFFFFF" p-id="1226"></path><path d="M393.309091 558.545455l104.727273-6.981819v-37.236363l-69.818182 4.654545v-165.236363l-58.181818 2.327272v165.236364l-167.563637 9.309091v37.236363l116.363637-4.654545-51.2 67.490909-62.836364 2.327273v39.563636l107.054545-6.981818z" fill="#FFFFFF" p-id="1227"></path><path d="M512 9.309091c276.945455 0 500.363636 225.745455 500.363636 502.690909s-225.745455 502.690909-500.363636 502.690909c-276.945455 0-500.363636-225.745455-500.363636-502.690909s223.418182-502.690909 500.363636-502.690909z m0-9.309091c-281.6 0-512 228.072727-512 512 0 281.6 228.072727 512 512 512 281.6 0 512-228.072727 512-512 0-281.6-230.4-512-512-512z" fill="#D8D8D8" p-id="1228"></path></svg>