<?xml version="1.0" standalone="no"?><!DOCTYPE svg PUBLIC "-//W3C//DTD SVG 1.1//EN" "http://www.w3.org/Graphics/SVG/1.1/DTD/svg11.dtd"><svg t="1565148159023" class="icon" viewBox="0 0 1024 1024" version="1.1" xmlns="http://www.w3.org/2000/svg" p-id="10485" xmlns:xlink="http://www.w3.org/1999/xlink" width="128" height="128"><defs><style type="text/css"></style></defs><path d="M575.235207 511.611144c-10.92584 0-21.856797 10.144034-21.856797 22.638603 0 10.144034 10.92584 20.294209 21.856797 20.294209 16.398482 0 28.107151-10.149151 28.107151-20.294209C603.342358 521.760295 591.633688 511.611144 575.235207 511.611144L575.235207 511.611144 575.235207 511.611144zM503.414461 406.211629c17.176195 0 28.106128-10.926864 28.106128-27.325345 0-17.176195-10.929934-27.324322-28.106128-27.324322-16.394389 0-32.011064 10.148128-32.011064 27.324322C471.403396 395.289881 487.020072 406.211629 503.414461 406.211629L503.414461 406.211629 503.414461 406.211629zM512 32.82664c-264.639263 0-479.17336 214.533075-479.17336 479.172337 0 264.640286 214.534098 479.17336 479.17336 479.17336s479.172337-214.533075 479.172337-479.17336C991.172337 247.359714 776.644379 32.82664 512 32.82664L512 32.82664 512 32.82664zM421.440471 633.399931c-28.888957 0-49.969065-4.681626-77.293387-12.494569l-78.851882 39.819914 22.647813-67.143213c-55.43045-39.028898-88.222297-88.214111-88.222297-148.332327 0-106.176205 99.930967-187.368388 221.719754-187.368388 107.7347 0 203.76687 64.017012 222.502583 154.585751-7.80885-1.568728-14.83487-2.345418-21.080108-2.345418-106.176205 0-188.145078 79.628572-188.145078 175.656649 0 16.393365 2.340301 31.228235 6.244214 46.844911C434.716846 633.399931 427.685709 633.399931 421.440471 633.399931L421.440471 633.399931 421.440471 633.399931zM746.997152 709.906395l15.611559 56.212256-59.335387-33.568537c-22.63758 4.681626-44.499493 11.707646-67.13912 11.707646-104.613616 0-187.369412-71.821769-187.369412-160.821779 0-89.001033 82.755796-160.825872 187.369412-160.825872 99.150184 0 188.151217 71.824839 188.151217 160.825872C824.285422 633.399931 790.714839 677.895331 746.997152 709.906395L746.997152 709.906395 746.997152 709.906395zM348.833827 351.562984c-16.394389 0-33.570583 10.148128-33.570583 27.324322 0 16.398482 17.176195 27.329439 33.570583 27.329439 15.615653 0 28.106128-10.930957 28.106128-27.329439C376.938931 361.711112 364.449479 351.562984 348.833827 351.562984L348.833827 351.562984 348.833827 351.562984zM697.809893 511.611144c-11.711739 0-21.86089 10.144034-21.86089 22.638603 0 10.144034 10.149151 20.294209 21.86089 20.294209 15.612583 0 27.325345-10.149151 27.325345-20.294209C725.135238 521.760295 713.422476 511.611144 697.809893 511.611144L697.809893 511.611144 697.809893 511.611144zM697.809893 511.611144" p-id="10486"></path></svg>